<svg xmlns="http://www.w3.org/2000/svg" viewBox="0 0 578.41 630"><defs><style>.cls-1{fill:#f2f2f2;}.cls-1,.cls-11,.cls-16,.cls-19,.cls-21,.cls-26,.cls-27,.cls-3,.cls-4,.cls-5,.cls-6,.cls-7{stroke:#000;}.cls-1,.cls-11,.cls-15,.cls-16,.cls-17,.cls-19,.cls-2,.cls-21,.cls-26,.cls-27,.cls-3,.cls-4,.cls-5,.cls-6,.cls-7{stroke-miterlimit:10;}.cls-1,.cls-11,.cls-16,.cls-17{stroke-width:2px;}.cls-11,.cls-17,.cls-2,.cls-26,.cls-27,.cls-3,.cls-7{fill:none;}.cls-15,.cls-17,.cls-2{stroke:#999;}.cls-2{stroke-width:1.5px;}.cls-3{stroke-width:3.01px;}.cls-4{stroke-width:1.05px;}.cls-10,.cls-12,.cls-13,.cls-14,.cls-18,.cls-20,.cls-22,.cls-23,.cls-24,.cls-25,.cls-5,.cls-8,.cls-9{isolation:isolate;}.cls-5{opacity:0.75;}.cls-6{fill:#333;}.cls-6,.cls-7{stroke-width:0.5px;}.cls-10,.cls-9{font-size:15px;}.cls-10,.cls-12,.cls-13,.cls-14,.cls-18,.cls-20,.cls-22,.cls-23,.cls-24,.cls-25,.cls-9{font-family:Arial-BoldMT, Arial;font-weight:700;}.cls-9{letter-spacing:0.05em;}.cls-10{letter-spacing:0.01em;}.cls-12,.cls-13,.cls-14{font-size:10.3px;}.cls-12{letter-spacing:0.15em;}.cls-13{letter-spacing:0.12em;}.cls-14{letter-spacing:0.15em;}.cls-15{fill:#1a1a1a;}.cls-16{fill:#2ea1e8;}.cls-18,.cls-22,.cls-24{font-size:22.87px;}.cls-18{letter-spacing:-0.03em;}.cls-19{stroke-width:1.1px;}.cls-20,.cls-23,.cls-25{font-size:5px;}.cls-20{letter-spacing:0.01em;}.cls-21{stroke-width:0.78px;}.cls-22{letter-spacing:-0.02em;}.cls-23{letter-spacing:-0.07em;}.cls-24{letter-spacing:-0.06em;}.cls-25{letter-spacing:-0.05em;}.cls-26{stroke-width:3px;}.cls-27{stroke-width:2.16px;}</style></defs><g id="图层_2" data-name="图层 2"><g id="图层_1-2" data-name="图层 1"><rect class="cls-1" x="1" y="1" width="575.9" height="628"/><path class="cls-2" d="M74,267l-.22-98.13L51.5,143.5l.31-52H102.5l63-44h83.39V199H201l-45.55,87.11H82V269a1,1,0,0,0-1-1H74Z"/><path class="cls-3" d="M573.07,226.84a11,11,0,0,1,3.83-1.34v180a11,11,0,0,1-3.83-1.34L499,361.4V269.6Z"/><path class="cls-3" d="M280.36,360.8H498.5V269.2H280.36a10.86,10.86,0,0,0-10.86,10.86v69.88A10.86,10.86,0,0,0,280.36,360.8Z"/><path d="M537.63,295.79l39.27,19.28v9.16l-40.21-20a1.1,1.1,0,0,1-.59-1v-6.5a1.12,1.12,0,0,1,.11-.47A1.07,1.07,0,0,1,537.63,295.79Z"/><path d="M522.78,285.44l54.12-27.17v9.49l-46.73,23.15a2.31,2.31,0,0,0-1.27,2l-.11,44.18a2.3,2.3,0,0,0,1.27,2.06l46.84,23.39v8.73l-54.14-27.95a2.29,2.29,0,0,1-1.24-2V287.49A2.3,2.3,0,0,1,522.78,285.44Z"/><polygon class="cls-4" points="432.02 279 439.77 279 435.89 293.25 428 293.25 432.02 279"/><polygon class="cls-4" points="446 278.98 453.75 278.98 449.88 293.23 441.98 293.23 446 278.98"/><polygon class="cls-4" points="459 278.98 466.75 278.98 462.88 293.23 454.98 293.23 459 278.98"/><polygon class="cls-4" points="472 278.98 479.75 278.98 475.88 293.23 467.98 293.23 472 278.98"/><polygon class="cls-4" points="293.22 349.46 300.96 349.46 297.09 335.2 289.2 335.2 293.22 349.46"/><polygon class="cls-4" points="307.2 349.48 314.95 349.48 311.07 335.22 303.18 335.22 307.2 349.48"/><polygon class="cls-4" points="320.2 349.48 327.95 349.48 324.07 335.22 316.18 335.22 320.2 349.48"/><polygon class="cls-4" points="333.2 349.48 340.95 349.48 337.07 335.22 329.18 335.22 333.2 349.48"/><rect class="cls-5" x="284" y="305" width="201" height="18" rx="4.34"/><circle class="cls-6" cx="489" cy="353" r="3.5"/><line class="cls-7" x1="489" y1="351.5" x2="489" y2="354.5"/><line class="cls-7" x1="487.5" y1="353" x2="490.5" y2="353"/><circle class="cls-6" cx="279.85" cy="278" r="3.5"/><line class="cls-7" x1="279.85" y1="276.5" x2="279.85" y2="279.5"/><line class="cls-7" x1="278.35" y1="278" x2="281.35" y2="278"/><g id="wz" class="cls-8"><text class="cls-9" transform="translate(283.28 297.87)">ENERG</text><text class="cls-10" transform="translate(340.37 297.87)">Y</text></g><polygon class="cls-11" points="470.1 349.48 346.97 349.48 343.1 335.22 466.23 335.22 470.1 349.48"/><g class="cls-8"><text class="cls-12" transform="translate(355 345.84) scale(1.24 1)">HUR</text><text class="cls-13" transform="translate(383.43 345.84) scale(1.24 1)">L</text><text class="cls-14" transform="translate(391.57 345.84) scale(1.24 1)"><tspan xml:space="preserve">  ONRUSR</tspan></text></g><path class="cls-2" d="M73.58,461.71h0L74,360h7c.91,0,1-1,1-1V342.87h73L200.51,434H248.4V582.83l-82.4.3-63-44H51.3V487.31Z"/><polygon class="cls-2" points="420 629 367.65 629 303.65 583 302.67 582.85 248.5 582.85 248.41 491.73 342.62 491.73 419.99 553.35 420 629 420 629"/><polygon class="cls-15" points="78.7 276.45 78.71 271.45 68.7 279.45 68.7 284.45 78.7 276.45"/><polygon class="cls-15" points="78.7 288.45 78.71 283.45 68.7 291.45 68.7 296.45 78.7 288.45"/><polygon class="cls-15" points="78.7 300.65 78.71 295.65 68.7 303.65 68.7 308.65 78.7 300.65"/><polygon class="cls-15" points="78.7 312.37 78.71 307.37 68.7 315.37 68.7 320.37 78.7 312.37"/><polygon class="cls-15" points="78.7 324.62 78.71 319.62 68.7 327.62 68.7 332.62 78.7 324.62"/><polygon class="cls-2" points="420.1 1.36 367.75 1.36 303.75 47.36 302.77 47.52 248.6 47.52 249 138.64 342.72 138.64 420.09 77.02 420.1 1.36 420.1 1.36"/><polygon class="cls-15" points="78.7 336.62 78.71 331.62 68.7 339.62 68.7 344.62 78.7 336.62"/><polygon class="cls-16" points="1.5 91.5 102.5 91.5 165.5 47.5 303.15 47.5 367.15 1.5 1.5 1.5 1.5 91.5"/><polygon class="cls-16" points="2 539 103 539 166 583 303.65 583 367.65 629 2 629 2 539"/><path d="M53.65,23.29Q50.28,19.88,44,19.88t-9.69,3.47Q31,26.79,31,33V59q0,6.22,3.34,9.67T44,72.09q6.3,0,9.65-3.4T57,59V33Q57,26.7,53.65,23.29ZM48.51,63.82v0a7,7,0,0,1-9.11,0A7,7,0,0,1,37.87,59V33a7.09,7.09,0,0,1,1.48-4.84,7,7,0,0,1,9.12,0A7,7,0,0,1,50,33V59A7,7,0,0,1,48.51,63.82Z"/><path d="M81.69,71.56H74.77V27.79l-7.53,4.64V25.26l7.21-4.82h7.24Z"/><polygon class="cls-15" points="78.7 348.16 78.71 343.16 68.7 351.16 68.7 356.16 78.7 348.16"/><line class="cls-11" x1="576.9" y1="1" x2="366" y2="1"/><polyline class="cls-11" points="368 629 420 629 576.9 629"/><line class="cls-11" x1="1" y1="554.5" x2="1" y2="84.5"/><path class="cls-17" d="M66.91,268H80.8a1,1,0,0,1,1,1v89.89a1.09,1.09,0,0,1-1.09,1.09H66.91a1.09,1.09,0,0,1-1.09-1.09V269a1.09,1.09,0,0,1,1.09-1.09Z"/><path d="M99.72,525.24,79.65,490.49a2.09,2.09,0,0,0-2.85-.78,2.16,2.16,0,0,0-.78.78L56,525.24a2.1,2.1,0,0,0,1.81,3.15H97.9a2.1,2.1,0,0,0,2.09-2.13A2,2,0,0,0,99.72,525.24Zm-41.15.59,19.27-33.37L97.1,525.83Z"/><circle cx="77.84" cy="521.94" r="1.38"/><path d="M77.84,520.1A1.85,1.85,0,1,0,79.68,522v0A1.84,1.84,0,0,0,77.84,520.1Zm0,2.76a.92.92,0,1,1,.92-.92A.93.93,0,0,1,77.84,522.86Z"/><path d="M77.84,499.94c-.65,0-1.23.43-1.23,5.7,0,6.09.61,10.83,1.23,11.92.61-1.09,1.22-5.83,1.22-11.92C79.06,500.37,78.48,499.94,77.84,499.94Z"/><path d="M77.84,499.24c-1.42,0-1.92,1.26-1.92,6.4s.5,12.76,1.92,12.76,1.91-7.62,1.91-12.76S79.25,499.24,77.84,499.24Zm0,15.39a67.64,67.64,0,0,1-.54-9c0-3.78.32-4.76.49-5h.09c.17.25.49,1.23.49,5A69.45,69.45,0,0,1,77.84,514.63Z"/><text class="cls-18" transform="translate(272.62 76.44)">CAUTION</text><polygon class="cls-19" points="72.5 103.88 72.5 111.58 77.6 103.88 72.5 103.88"/><polygon class="cls-19" points="82.7 103.88 72.5 119.28 72.5 126.98 87.8 103.88 82.7 103.88"/><polygon class="cls-19" points="92.9 103.88 72.5 134.68 72.5 142.38 77.6 142.38 98 111.58 98 103.88 92.9 103.88"/><polygon class="cls-19" points="87.8 142.38 98 126.98 98 119.28 82.7 142.38 87.8 142.38"/><polygon class="cls-19" points="98 142.38 98 134.68 92.9 142.38 98 142.38"/><g class="cls-8"><text class="cls-20" transform="translate(274.1 90.68)">Only through hell-like tempering can one develop </text><text class="cls-20" transform="translate(274.1 95.68)">the power to create heaven; only through bloody </text><text class="cls-20" transform="translate(274.1 100.68)">fingers can the sound of the world be heard.</text></g><polygon class="cls-21" points="274.12 82.5 266.5 90.12 266.5 82.5 274.12 82.5"/><text class="cls-22" transform="translate(104.53 119.42)">QUIET</text><g class="cls-8"><text class="cls-23" transform="translate(105.55 127.29)">Y</text><text class="cls-20" transform="translate(108.05 127.29)">ou think it is courage to take on </text><text class="cls-20" transform="translate(105.55 132.29)">the burden of life, but in fact, it </text><text class="cls-20" transform="translate(105.55 137.29)">takes courage to live the life you </text><text class="cls-20" transform="translate(105.55 142.29)">really want</text></g><g class="cls-8"><text class="cls-22" transform="translate(105.08 505.72)">UNIT</text><text class="cls-24" transform="translate(156.61 505.72)">Y</text></g><g class="cls-8"><text class="cls-20" transform="translate(106.56 512.41)">In order to achieve great goals and unit</text><text class="cls-25" transform="translate(185.72 512.41)">y</text><text class="cls-20" transform="translate(187.77 512.41)">, the </text><text class="cls-20" transform="translate(106.56 517.41)">army of millions necessary for this purpose </text><text class="cls-20" transform="translate(106.56 522.41)">should always keep the main things in mind </text><text class="cls-20" transform="translate(106.56 527.41)">and not be fooled by those nitpicking nitpicks.</text></g><polygon class="cls-26" points="298.45 387.51 298.45 376.49 308 370.98 317.55 376.49 317.55 387.51 308 393.02 298.45 387.51"/><polygon class="cls-26" points="325.43 387.51 325.43 376.49 334.98 370.98 344.52 376.49 344.52 387.51 334.98 393.02 325.43 387.51"/><polygon class="cls-26" points="352.36 387.51 352.36 376.49 361.91 370.98 371.46 376.49 371.46 387.51 361.91 393.02 352.36 387.51"/><polygon class="cls-26" points="378.99 387.26 378.99 376.23 388.54 370.72 398.08 376.23 398.08 387.26 388.54 392.77 378.99 387.26"/><polygon class="cls-26" points="405.97 387.26 405.97 376.23 415.51 370.72 425.06 376.23 425.06 387.26 415.51 392.77 405.97 387.26"/><polygon class="cls-26" points="432.9 387.26 432.9 376.23 442.44 370.72 451.99 376.23 451.99 387.26 442.44 392.77 432.9 387.26"/><polyline class="cls-27" points="576.9 629 576.9 405.5 576.9 371.32 576.9 362.59 576.9 324.23 576.9 315.07 576.9 267.76 576.9 258.27 576.9 225.5 576.9 1"/></g></g></svg>