<svg id="图层_1" data-name="图层 1" xmlns="http://www.w3.org/2000/svg" viewBox="0 0 1158 630">
    <defs>
        <style>.cls-1{fill:#f2f2f2;}.cls-1,.cls-15,.cls-21,.cls-22,.cls-26,.cls-28,.cls-3,.cls-30,.cls-31,.cls-39,.cls-5,.cls-6,.cls-7,.cls-8,.cls-9{stroke:#000;}.cls-1,.cls-11,.cls-15,.cls-18,.cls-19,.cls-2,.cls-20,.cls-21,.cls-22,.cls-23,.cls-24,.cls-25,.cls-26,.cls-28,.cls-3,.cls-30,.cls-31,.cls-39,.cls-5,.cls-6,.cls-7,.cls-8,.cls-9{stroke-miterlimit:10;}.cls-1,.cls-15,.cls-21,.cls-24{stroke-width:2px;}.cls-11,.cls-12,.cls-15,.cls-19,.cls-2,.cls-24,.cls-25,.cls-26,.cls-3,.cls-39,.cls-8,.cls-9{fill:none;}.cls-19,.cls-2,.cls-20,.cls-23,.cls-24,.cls-25{stroke:#999;}.cls-2,.cls-22,.cls-23{stroke-width:1.5px;}.cls-3{stroke-width:3.01px;}.cls-4,.cls-6{opacity:0.75;}.cls-18,.cls-5,.cls-8{stroke-width:1.05px;}.cls-7{fill:#333;}.cls-7,.cls-9{stroke-width:0.5px;}.cls-10{font-size:61px;font-family:ArialMT, Arial;letter-spacing:0.01em;}.cls-10,.cls-18,.cls-20{fill:#1a1a1a;}.cls-11{stroke:#4d4d4d;stroke-width:1.77px;}.cls-13{font-size:15px;letter-spacing:0.05em;}.cls-13,.cls-27,.cls-32,.cls-33{font-family:Arial-BoldMT, Arial;}.cls-13,.cls-16,.cls-27,.cls-29,.cls-32,.cls-33,.cls-34,.cls-37,.cls-40{font-weight:700;}.cls-14{letter-spacing:0.03em;}.cls-16{font-size:10.3px;letter-spacing:0.15em;}.cls-16,.cls-29,.cls-34,.cls-37,.cls-40{font-family:ArialNarrow-Bold, Arial;}.cls-17{letter-spacing:0.14em;}.cls-18{stroke:gray;}.cls-21,.cls-22{fill:#2ea1e8;}.cls-23{fill:#ccc;}.cls-25{stroke-width:2.01px;}.cls-26{stroke-width:1.6px;}.cls-27,.cls-33{font-size:22.87px;}.cls-27{letter-spacing:-0.03em;}.cls-28{stroke-width:1.1px;}.cls-29,.cls-34,.cls-37,.cls-40{font-size:5px;}.cls-29{letter-spacing:0.01em;}.cls-30{stroke-width:0.78px;}.cls-31{stroke-width:1.58px;}.cls-32{font-size:14.91px;letter-spacing:-0.03em;}.cls-33{letter-spacing:-0.02em;}.cls-34,.cls-38{letter-spacing:-0.05em;}.cls-35,.cls-37{letter-spacing:0.01em;}.cls-36{letter-spacing:-0.04em;}.cls-39{stroke-width:3px;}.cls-40{letter-spacing:0.01em;}</style>
    </defs>
    <polygon class="cls-1" points="1157 629 1 629 1 111 1 91 1 1 1157 1 1157 629" />
    <path class="cls-2" d="M172,331l-.22-98.13L149.5,207.5l.31-52H200.5l63-44h83.39V263H299l-45.55,87.11H180V333a1,1,0,0,0-1-1h-7Z" transform="translate(-98 -64)" />
    <path class="cls-3" d="M597,333.6v91.8l74.07,42.76a10.86,10.86,0,0,0,10.86,0L756,425.4V333.6l-74.07-42.76a10.86,10.86,0,0,0-10.86,0Z" transform="translate(-98 -64)" />
    <path class="cls-3" d="M378.36,424.8H596.5V333.2H378.36a10.86,10.86,0,0,0-10.86,10.86v69.88A10.86,10.86,0,0,0,378.36,424.8Z" transform="translate(-98 -64)" />
    <path class="cls-3" d="M756.5,333.2v91.6H974.64a10.86,10.86,0,0,0,10.86-10.86V344.06a10.86,10.86,0,0,0-10.86-10.86Z" transform="translate(-98 -64)" />
    <g class="cls-4">
        <path d="M732.92,400.23,677.73,427a2.3,2.3,0,0,1-2,0l-47.67-23.8a2.3,2.3,0,0,1-1.27-2.06l.11-44.18a2.31,2.31,0,0,1,1.27-2.05l47.62-23.59a2.26,2.26,0,0,1,2,0l47.83,23.27a1.07,1.07,0,0,1,0,1.92l-47.83,23a2.28,2.28,0,0,1-2,0l-40.16-19.72a1.06,1.06,0,0,0-1.53.95v6.5a1.08,1.08,0,0,0,.59,1l41.09,20.43a2.29,2.29,0,0,0,2,0l55.78-28.24a1.06,1.06,0,0,0,.6-1v-8.6a1.05,1.05,0,0,0-.6-1l-55.78-28a2.26,2.26,0,0,0-2,0l-55,27.61a2.31,2.31,0,0,0-1.26,2.05v53.88a2.29,2.29,0,0,0,1.24,2l55,28.39a2.26,2.26,0,0,0,2,0l56-27.49a1.06,1.06,0,0,0,.6-1v-6.23A1.07,1.07,0,0,0,732.92,400.23Z" transform="translate(-98 -64)" />
    </g>
    <polygon class="cls-5" points="432.02 279 439.77 279 435.89 293.25 428 293.25 432.02 279" />
    <polygon class="cls-5" points="446 278.98 453.75 278.98 449.88 293.23 441.98 293.23 446 278.98" />
    <polygon class="cls-5" points="459 278.98 466.75 278.98 462.88 293.23 454.98 293.23 459 278.98" />
    <polygon class="cls-5" points="472 278.98 479.75 278.98 475.88 293.23 467.98 293.23 472 278.98" />
    <polygon class="cls-5" points="293.22 349.46 300.96 349.46 297.09 335.2 289.2 335.2 293.22 349.46" />
    <polygon class="cls-5" points="307.2 349.48 314.95 349.48 311.07 335.22 303.18 335.22 307.2 349.48" />
    <polygon class="cls-5" points="320.2 349.48 327.95 349.48 324.07 335.22 316.18 335.22 320.2 349.48" />
    <polygon class="cls-5" points="333.2 349.48 340.95 349.48 337.07 335.22 329.18 335.22 333.2 349.48" />
    <rect class="cls-6" x="284" y="305" width="201" height="18" rx="4.34" />
    <circle class="cls-7" cx="489" cy="353" r="3.5" />
    <path class="cls-8" d="M584.05,417" transform="translate(-98 -64)" />
    <line class="cls-9" x1="489" y1="351.5" x2="489" y2="354.5" />
    <line class="cls-9" x1="487.5" y1="353" x2="490.5" y2="353" />
    <circle class="cls-7" cx="279.85" cy="278" r="3.5" />
    <path class="cls-8" d="M374.9,342" transform="translate(-98 -64)" />
    <line class="cls-9" x1="279.85" y1="276.5" x2="279.85" y2="279.5" />
    <line class="cls-9" x1="278.35" y1="278" x2="281.35" y2="278" />
    <text class="cls-10" transform="translate(678.23 337.5)">ITAEM</text>
    <circle class="cls-7" cx="667.35" cy="277.14" r="3.5" />
    <path class="cls-8" d="M762.4,341.14" transform="translate(-98 -64)" />
    <line class="cls-9" x1="667.35" y1="275.64" x2="667.35" y2="278.64" />
    <line class="cls-9" x1="665.85" y1="277.14" x2="668.85" y2="277.14" />
    <circle class="cls-7" cx="667.77" cy="353.04" r="3.5" />
    <path class="cls-8" d="M762.81,417" transform="translate(-98 -64)" />
    <line class="cls-9" x1="667.77" y1="351.54" x2="667.77" y2="354.54" />
    <line class="cls-9" x1="666.27" y1="353.04" x2="669.27" y2="353.04" />
    <circle class="cls-7" cx="877.77" cy="277.04" r="3.5" />
    <path class="cls-8" d="M972.81,341" transform="translate(-98 -64)" />
    <line class="cls-9" x1="877.77" y1="275.54" x2="877.77" y2="278.54" />
    <line class="cls-9" x1="876.27" y1="277.04" x2="879.27" y2="277.04" />
    <circle class="cls-7" cx="877.77" cy="353.04" r="3.5" />
    <path class="cls-8" d="M972.81,417" transform="translate(-98 -64)" />
    <line class="cls-9" x1="877.77" y1="351.54" x2="877.77" y2="354.54" />
    <line class="cls-9" x1="876.27" y1="353.04" x2="879.27" y2="353.04" />
    <polyline class="cls-11" points="579 2 579 31 596.3 46.25 596.3 78 579 92 579 122 596.3 137 596.3 168 579 183 579 447.67 560.1 462.94 560.1 493.48 579 508.75 579 538.78 560.1 554.05 560.1 584.59 579 599.86 579 628" />
    <path class="cls-12" d="M99,155" transform="translate(-98 -64)" />
    <text id="wz" class="cls-13" transform="translate(283.28 297.87)">
        ENERG
        <tspan class="cls-14" x="57.09" y="0">Y</tspan>
    </text>
    <polygon class="cls-15" points="470.1 349.48 346.97 349.48 343.1 335.22 466.23 335.22 470.1 349.48" />
    <text class="cls-16" transform="translate(355 345.84) scale(1.24 1)">
        HUR
        <tspan class="cls-17" x="22.93" y="0">L</tspan>
        <tspan x="29.49" y="0" xml:space="preserve">  ONRUSR</tspan>
    </text>
    <path class="cls-2" d="M171.58,525.71h0L172,424h7c.91,0,1-1,1-1V406.87h73L298.51,498H346.4V646.83l-82.4.3-63-44H149.3V551.31Z" transform="translate(-98 -64)" />
    <polygon class="cls-2" points="420 629 367.65 629 303.65 583 302.67 582.85 248.5 582.85 248.41 491.73 342.62 491.73 419.99 553.35 420 629 420 629" />
    <polygon class="cls-18" points="1079.01 275.8 1079.01 270.8 1089.01 278.8 1089.01 283.8 1079.01 275.8" />
    <polygon class="cls-18" points="1079.01 287.8 1079.01 282.8 1089.01 290.8 1089.01 295.8 1079.01 287.8" />
    <polygon class="cls-18" points="1079.01 300 1079.01 295 1089.01 303 1089.01 308 1079.01 300" />
    <polygon class="cls-18" points="1079.01 311.72 1079.01 306.72 1089.01 314.72 1089.01 319.72 1079.01 311.72" />
    <polygon class="cls-18" points="1079.01 323.98 1079.01 318.98 1089.01 326.98 1089.01 331.98 1079.01 323.98" />
    <polygon class="cls-18" points="1079.01 335.98 1079.01 330.98 1089.01 338.98 1089.01 343.98 1079.01 335.98" />
    <polygon class="cls-18" points="1079.01 347.75 1079.01 342.75 1089.01 350.75 1089.01 355.75 1079.01 347.75" />
    <path class="cls-2" d="M1181.69,331.08l.22-99.13,22.28-25.37L1204,155l-50.81-.42-63-44-83.39.65V262.08h47.89l45.55,87.11h73.45V332.1a1,1,0,0,1,1-1Z" transform="translate(-98 -64)" />
    <path class="cls-19" d="M1182.11,526.79h0l-.61-102.29h-6a2,2,0,0,1-2-2l.19-14.55h-73l-45.55,91.11h-47.89V647.91l82.4.3L1154,604l50.39.21v-51Z" transform="translate(-98 -64)" />
    <polygon class="cls-20" points="78.7 276.45 78.71 271.45 68.7 279.45 68.7 284.45 78.7 276.45" />
    <polygon class="cls-20" points="78.7 288.45 78.71 283.45 68.7 291.45 68.7 296.45 78.7 288.45" />
    <polygon class="cls-20" points="78.7 300.65 78.71 295.65 68.7 303.65 68.7 308.65 78.7 300.65" />
    <polygon class="cls-20" points="78.7 312.37 78.71 307.37 68.7 315.37 68.7 320.37 78.7 312.37" />
    <polygon class="cls-20" points="78.7 324.62 78.71 319.62 68.7 327.62 68.7 332.62 78.7 324.62" />
    <polygon class="cls-2" points="420.1 1.36 367.75 1.36 303.75 47.36 302.77 47.52 248.6 47.52 249 138.64 342.72 138.64 420.09 77.02 420.1 1.36 420.1 1.36" />
    <polygon class="cls-20" points="78.7 336.62 78.71 331.62 68.7 339.62 68.7 344.62 78.7 336.62" />
    <polygon class="cls-21" points="1.5 91.5 102.5 91.5 165.5 47.5 303.15 47.5 367.15 1.5 1.5 1.5 1.5 91.5" />
    <polygon class="cls-19" points="909.29 582.71 909.29 491.71 815.89 491.64 738.52 553.26 738.51 628.91 794.29 628.71 856.29 582.71 909.29 582.71" />
    <polygon class="cls-2" points="909 47 909 138 815.6 138.07 738.23 76.45 738.22 0.8 794 1 856 47 909 47" />
    <polygon class="cls-21" points="1157 539 1056 539 993 583 855.35 583 791.35 629 1157 629 1157 539" />
    <polygon class="cls-22" points="1157 91 1055.19 91 992.19 46.6 855.35 47 791.35 1 1157 1 1157 91" />
    <polygon class="cls-21" points="2 539 103 539 166 583 303.65 583 367.65 629 2 629 2 539" />
    <path d="M132.29,132.64q-3.34-3.45-3.34-9.67V97q0-6.22,3.36-9.65T142,83.88q6.28,0,9.65,3.41T155,97v26q0,6.25-3.35,9.69T142,136.09Q135.63,136.09,132.29,132.64Zm14.22-4.82A7,7,0,0,0,148,123V97a7,7,0,0,0-1.53-4.84,7,7,0,0,0-9.12,0A7.06,7.06,0,0,0,135.87,97v26a7,7,0,0,0,1.53,4.85,7,7,0,0,0,9.11,0Z" transform="translate(-98 -64)" />
    <path d="M179.69,135.56h-6.92V91.79l-7.53,4.64V89.26l7.21-4.82h7.24Z" transform="translate(-98 -64)" />
    <polygon class="cls-20" points="78.7 348.16 78.71 343.16 68.7 351.16 68.7 356.16 78.7 348.16" />
    <line class="cls-15" x1="366" y1="1" x2="793" y2="1" />
    <line class="cls-15" x1="368" y1="629" x2="795" y2="629" />
    <path class="cls-2" d="M954,111" transform="translate(-98 -64)" />
    <path class="cls-23" d="M149.3,603.13" transform="translate(-98 -64)" />
    <line class="cls-15" x1="1" y1="554.5" x2="1" y2="84.5" />
    <path class="cls-24" d="M66.91,267.95H80.8a1,1,0,0,1,1,1v89.89a1.09,1.09,0,0,1-1.09,1.09H66.91a1.09,1.09,0,0,1-1.09-1.09V269a1.09,1.09,0,0,1,1.09-1.09Z" />
    <path class="cls-25" d="M1175,331.3h13.82a1.09,1.09,0,0,1,1.09,1.09V423a1,1,0,0,1-1,1H1175a1.09,1.09,0,0,1-1.09-1.09V332.39a1.09,1.09,0,0,1,1.09-1.09Z" transform="translate(2265.8 691.3) rotate(-180)" />
    <line class="cls-26" x1="1157.2" y1="558" x2="1157.2" y2="88" />
    <path d="M197.72,589.24l-20.07-34.75a2.09,2.09,0,0,0-3.63,0L154,589.24a2.1,2.1,0,0,0,1.81,3.15H195.9A2.11,2.11,0,0,0,197.72,589.24Zm-41.15.59,19.27-33.37,19.26,33.37Z" transform="translate(-98 -64)" />
    <circle cx="77.84" cy="521.94" r="1.38" />
    <path d="M175.84,584.1a1.85,1.85,0,1,0,1.84,1.84A1.84,1.84,0,0,0,175.84,584.1Zm0,2.76a.92.92,0,1,1,.92-.92A.93.93,0,0,1,175.84,586.86Z" transform="translate(-98 -64)" />
    <path d="M175.84,563.94c-.65,0-1.23.43-1.23,5.7,0,6.09.61,10.83,1.23,11.92.61-1.09,1.22-5.83,1.22-11.92C177.06,564.37,176.48,563.94,175.84,563.94Z" transform="translate(-98 -64)" />
    <path d="M175.84,563.24c-1.42,0-1.92,1.26-1.92,6.4s.5,12.76,1.92,12.76,1.91-7.62,1.91-12.76S177.25,563.24,175.84,563.24Zm0,15.39a67,67,0,0,1-.54-9c0-3.78.32-4.76.49-5h.09c.17.25.49,1.23.49,5A69,69,0,0,1,175.84,578.63Z" transform="translate(-98 -64)" />
    <text class="cls-27" transform="translate(272.62 76.44)">CAUTION</text>
    <polygon class="cls-28" points="72.5 103.88 72.5 111.58 77.6 103.88 72.5 103.88" />
    <polygon class="cls-28" points="82.7 103.88 72.5 119.28 72.5 126.98 87.8 103.88 82.7 103.88" />
    <polygon class="cls-28" points="92.9 103.88 72.5 134.68 72.5 142.38 77.6 142.38 98 111.58 98 103.88 92.9 103.88" />
    <polygon class="cls-28" points="87.8 142.38 98 126.98 98 119.28 82.7 142.38 87.8 142.38" />
    <polygon class="cls-28" points="98 142.38 98 134.68 92.9 142.38 98 142.38" />
    <text class="cls-29" transform="translate(274.1 90.68)">
        Only through hell-like tempering can one develop
        <tspan x="0" y="5">the power to create heaven; only through bloody </tspan>
        <tspan x="0" y="10">fingers can the sound of the world be heard.</tspan>
    </text>
    <polygon class="cls-30" points="274.12 82.5 266.5 90.12 266.5 82.5 274.12 82.5" />
    <path class="cls-31" d="M1156.45,433.19l-5,5a.73.73,0,0,1-.5.21h-24.92a.73.73,0,0,1-.5-.21l-5-5a.7.7,0,0,1,.49-1.19H1156A.7.7,0,0,1,1156.45,433.19Z" transform="translate(-98 -64)" />
    <path class="cls-31" d="M1133.83,453.87h9.38a.7.7,0,0,1,.49,1.2l-4.69,4.69a.71.71,0,0,1-1,0l-4.68-4.69A.7.7,0,0,1,1133.83,453.87Z" transform="translate(-98 -64)" />
    <text class="cls-32" transform="translate(1007.46 387.51)">ENDURE</text>
    <text class="cls-33" transform="translate(104.53 119.42)">QUIET</text>
    <text class="cls-34" transform="translate(105.55 127.29)">
        Y
        <tspan class="cls-35" x="2.5" y="0">ou think it is courage to take on </tspan>
        <tspan class="cls-35">
            <tspan x="0" y="5">the burden of life, but in fact, it </tspan>
            <tspan x="0" y="10">takes courage to live the life you </tspan>
            <tspan x="0" y="15">really want</tspan>
        </tspan>
    </text>
    <text class="cls-33" transform="translate(105.08 505.72)">
        UNIT
        <tspan class="cls-36" x="51.53" y="0">Y</tspan>
    </text>
    <text class="cls-37" transform="translate(106.56 512.41)">
        In order to achieve great goals and unit
        <tspan class="cls-38" x="79.16" y="0">y</tspan>
        <tspan x="81.21" y="0">, the </tspan>
        <tspan x="0" y="5">army of millions necessary for this purpose </tspan>
        <tspan x="0" y="10">should always keep the main things in mind </tspan>
        <tspan x="0" y="15">and not be fooled by those nitpicking nitpicks. </tspan>
    </text>
    <polygon class="cls-39" points="298.45 387.51 298.45 376.49 308 370.98 317.55 376.49 317.55 387.51 308 393.02 298.45 387.51" />
    <polygon class="cls-39" points="325.43 387.51 325.43 376.49 334.98 370.98 344.52 376.49 344.52 387.51 334.98 393.02 325.43 387.51" />
    <polygon class="cls-39" points="352.36 387.51 352.36 376.49 361.91 370.98 371.46 376.49 371.46 387.51 361.91 393.02 352.36 387.51" />
    <polygon class="cls-39" points="378.99 387.26 378.99 376.23 388.54 370.72 398.08 376.23 398.08 387.26 388.54 392.77 378.99 387.26" />
    <polygon class="cls-39" points="405.97 387.26 405.97 376.23 415.51 370.72 425.06 376.23 425.06 387.26 415.51 392.77 405.97 387.26" />
    <polygon class="cls-39" points="432.9 387.26 432.9 376.23 442.44 370.72 451.99 376.23 451.99 387.26 442.44 392.77 432.9 387.26" />
    <polygon class="cls-15" points="788.53 82.73 788.53 75.49 794.8 71.87 801.07 75.49 801.07 82.73 794.8 86.35 788.53 82.73" />
    <polygon class="cls-15" points="805.02 82.73 805.02 75.49 811.29 71.87 817.56 75.49 817.56 82.73 811.29 86.35 805.02 82.73" />
    <polygon class="cls-15" points="796.69 69.25 796.69 62.01 802.96 58.39 809.23 62.01 809.23 69.25 802.96 72.87 796.69 69.25" />
    <text class="cls-27" transform="translate(823.09 74.1)">STRIVE</text>
    <text class="cls-40" transform="translate(823.61 81.63)">
        Once your heels are established, you
        <tspan x="0" y="5">must take your strength and skills and </tspan>
        <tspan x="0" y="10">fight for yourself.</tspan>
    </text>
    <polygon points="950.75 124.04 939.48 147.47 942.16 151.22 948.31 147 943.52 147 950.75 131.54 957.98 147 953.19 147 959.32 151.22 962 147.47 950.75 124.04" />
    <text class="cls-27" transform="translate(967.12 145.74)">HURNTER</text>
</svg>