<svg xmlns="http://www.w3.org/2000/svg" viewBox="0 0 578.6 630"><defs><style>.cls-1{fill:#f2f2f2;}.cls-1,.cls-10,.cls-11,.cls-12,.cls-14,.cls-15,.cls-2,.cls-21,.cls-5,.cls-6{stroke:#000;}.cls-1,.cls-10,.cls-11,.cls-12,.cls-13,.cls-14,.cls-15,.cls-2,.cls-21,.cls-5,.cls-6,.cls-7,.cls-8,.cls-9{stroke-miterlimit:10;}.cls-1,.cls-10,.cls-12{stroke-width:2px;}.cls-12,.cls-13,.cls-14,.cls-2,.cls-21,.cls-6,.cls-8,.cls-9{fill:none;}.cls-2{stroke-width:3.01px;}.cls-16,.cls-17,.cls-18,.cls-19,.cls-20,.cls-3{isolation:isolate;}.cls-3{font-size:61px;font-family:ArialMT, Arial;letter-spacing:0.01em;}.cls-3,.cls-7{fill:#1a1a1a;}.cls-4{letter-spacing:-0.06em;}.cls-5{fill:#333;}.cls-5,.cls-6{stroke-width:0.5px;}.cls-7{stroke:gray;stroke-width:1.05px;}.cls-13,.cls-8,.cls-9{stroke:#999;}.cls-11,.cls-8{stroke-width:1.5px;}.cls-10,.cls-11{fill:#2ea1e8;}.cls-13{stroke-width:2.01px;}.cls-14{stroke-width:1.6px;}.cls-15{stroke-width:1.58px;}.cls-16{font-size:14.91px;letter-spacing:-0.03em;}.cls-16,.cls-17,.cls-19,.cls-20{font-family:Arial-BoldMT, Arial;font-weight:700;}.cls-17,.cls-20{font-size:22.87px;}.cls-17{letter-spacing:-0.03em;}.cls-19{font-size:5px;letter-spacing:0.01em;}.cls-20{letter-spacing:-0.03em;}.cls-21{stroke-width:2.16px;}</style></defs><g id="图层_2" data-name="图层 2"><g id="图层_1-2" data-name="图层 1"><rect class="cls-1" x="1.5" y="1" width="576.1" height="628"/><path class="cls-2" d="M78.6,269.6v91.8L4.53,404.16a10.71,10.71,0,0,1-3,1.18V225.66a10.71,10.71,0,0,1,3,1.18Z"/><path class="cls-2" d="M79.1,269.2v91.6H297.24a10.86,10.86,0,0,0,10.86-10.86V280.06a10.86,10.86,0,0,0-10.86-10.86Z"/><path d="M56.76,286.83v8.6a1.06,1.06,0,0,1-.6,1L1.5,324.1V315l46.72-22.47a1.11,1.11,0,0,0,.49-.49,1.07,1.07,0,0,0-.49-1.43L1.5,267.86v-9.47l54.66,27.44A1.06,1.06,0,0,1,56.76,286.83Z"/><path d="M57,337v6.23a1.06,1.06,0,0,1-.6,1L1.5,371.2v-8.77l54-26.2.2-.06A1.07,1.07,0,0,1,57,337Z"/><text class="cls-3" transform="translate(98.83 337.5)">I<tspan class="cls-4" x="17.56" y="0">T</tspan><tspan x="50.9" y="0">AEM</tspan></text><circle class="cls-5" cx="87.95" cy="277.14" r="3.5"/><line class="cls-6" x1="87.95" y1="275.64" x2="87.95" y2="278.64"/><line class="cls-6" x1="86.45" y1="277.14" x2="89.45" y2="277.14"/><circle class="cls-5" cx="88.37" cy="353.04" r="3.5"/><line class="cls-6" x1="88.37" y1="351.54" x2="88.37" y2="354.54"/><line class="cls-6" x1="86.87" y1="353.04" x2="89.87" y2="353.04"/><circle class="cls-5" cx="298.37" cy="277.04" r="3.5"/><line class="cls-6" x1="298.37" y1="275.54" x2="298.37" y2="278.54"/><line class="cls-6" x1="296.87" y1="277.04" x2="299.87" y2="277.04"/><circle class="cls-5" cx="298.37" cy="353.04" r="3.5"/><line class="cls-6" x1="298.37" y1="351.54" x2="298.37" y2="354.54"/><line class="cls-6" x1="296.87" y1="353.04" x2="299.87" y2="353.04"/><polygon class="cls-7" points="499.62 275.8 499.62 270.8 509.62 278.8 509.62 283.8 499.62 275.8"/><polygon class="cls-7" points="499.62 287.8 499.62 282.8 509.62 290.8 509.62 295.8 499.62 287.8"/><polygon class="cls-7" points="499.62 300 499.62 295 509.62 303 509.62 308 499.62 300"/><polygon class="cls-7" points="499.62 311.72 499.62 306.72 509.62 314.72 509.62 319.72 499.62 311.72"/><polygon class="cls-7" points="499.62 323.98 499.62 318.98 509.62 326.98 509.62 331.98 499.62 323.98"/><polygon class="cls-7" points="499.62 335.98 499.62 330.98 509.62 338.98 509.62 343.98 499.62 335.98"/><polygon class="cls-7" points="499.62 347.75 499.62 342.75 509.62 350.75 509.62 355.75 499.62 347.75"/><path class="cls-8" d="M504.29,267.08l.22-99.13,22.28-25.37L526.6,91l-50.81-.42-63-44-83.39.65V198.08h47.89l45.55,87.11h73.45V268.1a1,1,0,0,1,1-1Z"/><path class="cls-9" d="M504.71,462.79h0L504.1,360.5h-6a2,2,0,0,1-2-2l.19-14.55h-73l-45.55,91.11H329.85V583.91l82.4.3L476.6,540l50.39.21v-51Z"/><polygon class="cls-9" points="329.89 582.71 329.89 491.71 236.5 491.64 159.13 553.26 159.12 628.91 214.9 628.71 276.89 582.71 329.89 582.71"/><polygon class="cls-8" points="329.61 47 329.61 138 236.21 138.07 158.84 76.45 158.82 0.8 214.6 1 276.61 47 329.61 47"/><polygon class="cls-10" points="577.61 539 476.61 539 413.61 583 275.95 583 211.96 629 577.61 629 577.61 539"/><polygon class="cls-11" points="577.61 91 475.8 91 412.8 46.6 275.95 47 211.96 1 577.61 1 577.61 91"/><polyline class="cls-12" points="213.6 1 211.96 1 158.82 1 1.5 1"/><polyline class="cls-12" points="1.5 629 211.96 629 215.6 629"/><path class="cls-13" d="M511.41,360H497.59a1.09,1.09,0,0,1-1.09-1.09V268.3a1,1,0,0,1,1-1h13.91a1.08,1.08,0,0,1,1.08,1.09v90.52a1.08,1.08,0,0,1-1.08,1.09Z"/><line class="cls-14" x1="577.8" y1="558" x2="577.8" y2="88"/><path class="cls-15" d="M479.05,369.19l-5,5a.71.71,0,0,1-.5.21H448.63a.75.75,0,0,1-.5-.21l-5-5a.71.71,0,0,1,0-1,.69.69,0,0,1,.48-.2h35a.7.7,0,0,1,.65.75A.69.69,0,0,1,479.05,369.19Z"/><path class="cls-15" d="M456.43,389.87h9.38a.7.7,0,0,1,.71.7.68.68,0,0,1-.22.5l-4.69,4.69a.72.72,0,0,1-1,0l-4.68-4.69a.7.7,0,0,1,.5-1.2Z"/><text class="cls-16" transform="translate(428.06 387.51)">ENDURE</text><polygon class="cls-12" points="209.13 82.73 209.13 75.49 215.41 71.87 221.68 75.49 221.68 82.73 215.41 86.35 209.13 82.73"/><polygon class="cls-12" points="225.63 82.73 225.63 75.49 231.9 71.87 238.16 75.49 238.16 82.73 231.9 86.35 225.63 82.73"/><polygon class="cls-12" points="217.29 69.25 217.29 62.01 223.56 58.39 229.84 62.01 229.84 69.25 223.56 72.87 217.29 69.25"/><text class="cls-17" transform="translate(243.69 74.1)">STRIVE</text><g class="cls-18"><text class="cls-19" transform="translate(244.21 81.63)">Once your heels are established, you </text><text class="cls-19" transform="translate(244.21 86.63)">must take your strength and skills and </text><text class="cls-19" transform="translate(244.21 91.63)">fight for yourself.</text></g><polygon points="371.36 124.04 360.08 147.47 362.76 151.22 368.92 147 364.13 147 371.36 131.54 378.58 147 373.8 147 379.93 151.22 382.61 147.47 371.36 124.04"/><text class="cls-20" transform="translate(387.73 145.74)">HURNTER</text><polyline class="cls-21" points="1.5 1 1.5 225.66 1.5 258.39 1.5 267.86 1.5 314.98 1.5 324.1 1.5 362.43 1.5 371.2 1.5 405.34 1.5 629"/></g></g></svg>